# xmcd
#
# Track frame offsets: 
#        150
#        16502
#        30730
#        45690
#        63009
#        80671
#        97637
#        115905
#        133915
#        150990
#        167989
#        183942
#        199961
#
# Disc length: 2903 seconds
#
# Revision: 0
# Processed by: cddbd v1.5.2PL0 Copyright (c) Steve Scherf et al.
# Submitted via: ExactAudioCopy v0.95b4
#
DISCID=9b0b550d
DTITLE=Various Artist - Down Low and Friends
DYEAR=1900
DGENRE=Soul
TTITLE0=Living in the Getto
TTITLE1=Rockin Dis
TTITLE2=Murder 2002
TTITLE3=Judgment Day
TTITLE4=When Doves Cry
TTITLE5=Once Upon a Time
TTITLE6=Jonny B.
TTITLE7=Wouldn´t it be Good
TTITLE8=Key to your heart
TTITLE9=Hiroshima
TTITLE10=Don`t You
TTITLE11=La Serenissima
TTITLE12=I want to know what Love is
EXTD=
EXTT0=
EXTT1=
EXTT2=
EXTT3=
EXTT4=
EXTT5=
EXTT6=
EXTT7=
EXTT8=
EXTT9=
EXTT10=
EXTT11=
EXTT12=
PLAYORDER=
